PathFileType	4	(X/Y/Z)	C:/Users/beibeiliu/ov580/test_trc/User3\sequence.6_training_dense_left.trc
DataRate	CameraRate	NumFrames	NumMarkers	Units	OrigDataRate	OrigDataStartFrame	OrigNumFrames
120	120	23	19	mm	120	1	195
Frame#	Time	ThumbCMC			ThumbMCP			ThumbIP			ThumbTip			IndexMCP			IndexPIP			IndexTip			MiddleMCP			MiddlePIP			MiddleTip			RingMCP			RingPIP			RingTip			PinkyMCP			PinkyPIP			PinkyTip			BackHand1			BackHand2			BackHand3	
		X0	Y0	Z0	X1	Y1	Z1	X2	Y2	Z2	X3	Y3	Z3	X4	Y4	Z4	X5	Y5	Z5	X6	Y6	Z6	X7	Y7	Z7	X8	Y8	Z8	X9	Y9	Z9	X10	Y10	Z10	X11	Y11	Z11	X12	Y12	Z12	X13	Y13	Z13	X14	Y14	Z14	X15	Y15	Z15	X16	Y16	Z16	X17	Y17	Z17	X18	Y18	Z18	
0	0	-173.301	-8.95364	20.3793	-155.172	-22.9801	-2.17798	-137.769	-33.0371	-26.2022	-130.907	-44.3229	-49.521	-187.723	5.76407	-57.1657	-177.166	-2.91284	-82.6356	-168.377	-21.1451	-106.964	-205.918	2.50806	-65.6572	-198.481	-10.4676	-93.8329	-189.726	-37.7844	-112.123	-223.013	-4.15824	-61.2709	-219.721	-13.7399	-85.6322	-213.185	-37.9938	-101.772	-245.762	-13.8712	-46.4244	-243.214	-19.4782	-68.8525	-230.037	-37.5242	-85.996	-235.166	6.15137	-9.32662	-240.02	3.99769	25.1514	-206.417	14.2236	9.23704	
1	0.00833333	-174.494	-10.4524	18.8913	-154.811	-21.2767	-3.33055	-144.955	-31.0321	-27.9917	-137.077	-42.5243	-51.9543	-187.78	7.77494	-57.0392	-178.502	-2.36763	-87.3029	-171.685	-26.2212	-104.588	-203.499	2.09118	-67.3088	-197.467	-10.6379	-91.0609	-191.965	-43.0972	-107.979	-227.567	-3.72214	-59.5211	-218.967	-17.7916	-83.9606	-212.714	-51.8565	-92.6821	-242.835	-13.5992	-42.874	-237.991	-27.1559	-71.2937	-229.689	-48.1778	-78.9408	-235.978	6.87763	-4.92117	-237.193	8.30133	23.707	-203.019	13.7482	8.22885	
2	0.0166667	-175.082	-13.1095	22.5991	-157.752	-22.0743	-0.305381	-144.521	-30.1503	-32.1946	-139.792	-37.8949	-48.1592	-183.739	8.96255	-58.2536	-183.016	-4.74053	-83.481	-172.801	-33.8151	-89.5486	-203.45	4.26196	-63.2877	-195.113	-14.5784	-89.2046	-189.052	-50.1633	-92.0795	-219.395	-3.99484	-57.0226	-214.639	-28.6556	-81.6037	-211.197	-59.3257	-78.4869	-242.212	-11.6746	-46.6629	-237.44	-30.383	-68.8026	-226.26	-53.9825	-67.4598	-234.085	10.2095	-5.17044	-234.847	7.9609	23.9725	-202.593	12.9917	13.0091	
3	0.025	-179.435	-9.27136	22.6381	-163.247	-20.285	1.51324	-146.513	-27.6297	-22.8346	-146.208	-37.1042	-44.9621	-191.068	9.96745	-52.2467	-179.843	-3.36738	-81.0903	-174.299	-32.8794	-88.2542	-204.871	5.44334	-57.4182	-192.654	-12.6119	-83.9462	-187.221	-49.7319	-79.3392	-224.164	-4.1011	-55.2971	-213.683	-25.6948	-77.5359	-206.367	-54.2785	-66.2863	-240.682	-10.7529	-39.2064	-234.545	-20.1853	-66.6085	-219.419	-44.2261	-71.3019	-237.717	4.99724	-1.45714	-245.842	4.65904	27.9117	-209.882	15.3882	15.0421	
4	0.0333333	-224.036	-31.2404	165.743	-222.308	-47.483	138.378	-219.174	-57.5504	109.063	-225.377	-63.8205	88.4315	-213.096	-3.0919	95.7581	-202.882	-25.5036	73.3496	-211.874	-51.8529	79.5288	-230.109	10.3495	94.8418	-219.429	-1.65401	62.4407	-224.88	-38.4224	61.2781	-252.989	5.2609	91.9122	-250.936	-8.92469	62.9497	-248.367	-37.4802	60.0727	-270.44	-7.68624	103.544	-260.812	-21.0149	78.3984	-261.939	-50.5004	82.7271	-269.244	7.91301	139.161	-280.455	6.91317	167.637	-240.891	6.45859	161.246	
5	0.0416667	-225.739	-30.7411	163.82	-220.866	-42.7492	130.715	-215.569	-51.4776	103.645	-218.42	-56.1474	79.8908	-212.486	5.11608	98.3558	-203.95	-4.58019	68.2109	-212.19	-37.2363	76.5996	-246.276	12.8708	84.0094	-250.363	-6.14032	56.6299	-248.271	-39.5064	67.2232	-264.448	-27.2292	95.3484	-260.402	-60.0316	101.286	-260.69	-70.133	131.41	-280.879	-31.6151	105.382	-272.107	-53.5096	113.061	-269.973	-69.7061	135.883	-268.539	11.7858	136.895	-269.299	8.87925	168.201	-237.832	5.14491	156.973	
6	0.05	-220.358	-29.235	161.727	-219.764	-46.1172	127.972	-219.295	-57.4818	100.921	-239.569	-61.5579	82.1679	-219.375	8.68656	93.3371	-206.796	-7.78788	65.1129	-217.962	-35.5466	83.1458	-235.858	12.6017	82.1486	-231.146	-2.60306	56.8557	-234.063	-43.2342	69.5174	-256.572	4.32931	85.9276	-254.569	-10.2891	62.6033	-252.592	-43.0778	73.7152	-272.55	-36.4865	102.363	-268.226	-58.0712	110.807	-264.179	-68.616	135.784	-268.365	7.19198	136.491	-279.46	5.2264	166.678	-243.025	7.65055	155.495	
7	0.0583333	-181.057	-6.65566	17.6184	-164.082	-14.7768	-6.70427	-155.779	-22.2451	-36.936	-167.177	-35.8088	-57.7071	-184.743	8.48109	-53.3699	-174.686	-20.8277	-70.8055	-164.366	-38.27	-47.8473	-207.009	-2.62655	-65.3654	-190.705	-28.103	-74.8952	-190.221	-39.9143	-38.4449	-225.245	-11.2618	-59.9848	-210.615	-37.9762	-69.8065	-204.207	-47.6928	-41.1733	-237.732	-12.8019	-46.939	-223.854	-24.7793	-65.6571	-218.014	-49.4134	-47.0549	-237.723	6.07703	-4.22022	-243.631	1.46879	22.2265	-208.448	15.5539	12.7006	
8	0.0666667	-240.16	-32.5817	179.356	-230.778	-48.9629	147.583	-224.669	-56.5565	122.384	-223.846	-58.3925	96.723	-208.875	-12.802	120.889	-199.388	-40.4804	119.698	-216.896	-47.7473	147.437	-227.744	15.1044	106.914	-208.535	8.12494	85.2485	-200.673	-30.3234	75.4797	-244.969	-0.175603	104.273	-233.312	-7.78777	77.3201	-218.492	-25.1325	56.5577	-269.976	-3.80006	106.381	-257.85	3.56816	86.1492	-250.556	9.34593	67.9978	-273.865	3.05384	150.552	-294.16	-0.643368	170.993	-257.532	5.35611	177.198	
9	0.075	-173.176	-6.4329	18.3409	-155.6	-15.3374	-11.2606	-161.414	-26.2752	-44.3159	-184.655	-38.0477	-55.1952	-181.637	3.07366	-60.8181	-170.711	-27.9861	-65.0072	-178.195	-35.6156	-36.3976	-201.677	-5.57528	-66.7568	-191.607	-33.7264	-70.1423	-192.76	-36.3752	-27.4496	-219.095	-8.33313	-60.3749	-213.995	-38.8411	-67.2753	-208.087	-46.1883	-36.1058	-237.936	-12.83	-54.3759	-225.807	-33.4473	-64.6486	-221.171	-49.1027	-35.6701	-237.131	8.20743	-5.94927	-238.679	5.00867	21.3737	-202.834	18.5521	10.4628	
10	0.0833333	-174.971	-11.7871	18.1938	-156.042	-15.6837	-8.20387	-155.897	-22.1208	-39.2206	-176.941	-30.9307	-56.1608	-176.972	8.41432	-54.8402	-171.894	-18.283	-70.0915	-173.105	-34.8684	-40.8956	-197.706	-1.46445	-62.048	-189.158	-32.1978	-67.3096	-196.336	-39.3475	-30.8284	-217.025	-10.7494	-58.4322	-211.281	-41.2697	-59.2556	-205.898	-41.8552	-24.4474	-230.072	-17.7632	-53.7041	-219.203	-42.8612	-49.9485	-221.34	-44.3051	-18.8189	-231.039	13.0966	-3.40343	-236.638	6.24815	22.0179	-200.42	14.3267	14.4564	
11	0.0916667	-174.673	-11.2138	22.0783	-155.735	-10.5713	-3.5263	-159.466	-16.1088	-32.3663	-176.585	-24.6404	-53.6018	-181.363	8.92957	-54.3439	-173.949	-21.515	-70.7476	-175.038	-33.5639	-38.9372	-201.929	-1.27695	-60.5557	-196.536	-35.5228	-65.9814	-195.4	-38.2364	-27.8979	-220.607	-10.6306	-57.9446	-215.134	-40.5713	-59.1264	-205.763	-41.1456	-25.4054	-239.371	-14.575	-49.4442	-227.271	-39.7511	-54.5577	-226.001	-45.9866	-22.303	-232.258	10.8868	-4.12636	-238.689	3.11186	27.3233	-201.975	11.3884	15.9812	
12	0.1	-177.663	-17.4149	22.1165	-155.675	-14.4467	-7.91356	-161.354	-17.0946	-38.1429	-182.311	-24.5779	-53.9867	-178.742	7.74632	-54.5219	-172.513	-18.2163	-73.6229	-176.061	-35.3224	-41.3134	-195.634	-1.72554	-63.2689	-192.879	-31.5249	-68.5207	-199.798	-36.3789	-25.8635	-212.497	-11.9916	-58.7309	-210.132	-42.7524	-52.2864	-210.593	-40.5908	-20.3949	-230.812	-16.8378	-51.4086	-223.603	-42.0933	-46.2155	-228.537	-40.4212	-12.4495	-231.154	15.3311	-5.46262	-237.321	5.53346	24.3832	-199.943	11.4314	12.7807	
13	0.108333	-176.425	-14.8224	19.2428	-154.104	-14.6831	-10.5374	-161.642	-19.2704	-39.7675	-188.848	-26.8405	-47.5823	-179.425	5.2896	-58.0787	-176.612	-22.2962	-72.8376	-175.91	-36.7579	-40.4635	-197.014	-4.58046	-63.6606	-191.121	-36.915	-64.9425	-194.588	-37.376	-26.1793	-212.647	-13.0982	-58.5982	-215.467	-43.1654	-55.0201	-212.097	-39.628	-20.1707	-233.162	-16.9312	-48.4754	-223.596	-44.5882	-40.5021	-222.316	-34.6108	-12.9395	-232.426	13.1442	-7.31876	-235.812	6.71359	20.8787	-198.581	11.361	14.4968	
14	0.116667	-173.927	-13.9843	14.8046	-156.19	-16.4534	-13.1094	-166.304	-22.5057	-43.3652	-193.679	-30.1293	-52.9418	-184.024	1.50317	-60.903	-177.165	-26.7983	-71.1853	-183.215	-36.6134	-37.7888	-202.103	-11.3222	-63.9275	-195.364	-40.7407	-60.0552	-200.621	-37.1677	-21.6691	-223.789	-17.5355	-56.3845	-216.582	-46.192	-50.8805	-210.055	-38.3103	-16.023	-236.041	-20.0025	-47.8475	-226.47	-47.2656	-39.9715	-226.527	-37.0689	-12.0691	-234.644	10.8256	-6.8546	-235.673	3.56957	20.0583	-201.882	11.1678	11.7782	
15	0.125	-177.157	-19.945	15.0878	-154.179	-21.5756	-15.3953	-166.011	-27.4876	-47.6563	-190.916	-35.1706	-54.3821	-182.681	-2.46769	-64.728	-178.333	-30.0927	-74.9696	-186.229	-41.9387	-40.7699	-204.606	-12.9381	-63.4491	-201.666	-47.034	-60.3883	-200.966	-39.1426	-21.0655	-223.587	-19.824	-57.3591	-216.301	-50.5382	-48.7413	-211.31	-41.1519	-16.74	-241.062	-26.7425	-50.8245	-225.797	-47.487	-43.2993	-220.542	-41.4415	-15.0983	-228.282	9.95123	-11.1757	-234.885	3.08583	21.1277	-201.264	6.60182	6.62357	
16	0.133333	-177.786	-18.4477	8.83111	-162.048	-26.5468	-16.1738	-166.499	-40.3255	-45.5577	-193.046	-50.8216	-56.3571	-183.958	-10.0625	-62.1123	-179.777	-40.914	-69.2656	-187.619	-46.5705	-37.4028	-205.109	-22.8134	-66.2288	-198.483	-53.5278	-61.0072	-196.39	-44.86	-20.4785	-225.247	-28.8375	-59.6468	-216.253	-59.2047	-51.3102	-212.077	-52.1554	-21.5663	-241.176	-33.2316	-48.5566	-229.006	-59.7638	-46.7591	-224.518	-52.0835	-15.6108	-238.318	-0.385968	-8.60723	-240.267	-4.79926	20.8974	-204.868	3.77799	8.65179	
17	0.141667	-179.695	-22.2835	4.96001	-162.365	-33.6923	-19.6926	-169.558	-48.3506	-48.6695	-197.703	-56.7223	-55.4464	-185.768	-22.458	-69.3451	-176.261	-52.0641	-69.407	-179.679	-54.3728	-38.3394	-202.415	-34.6153	-66.9811	-196.706	-64.6969	-53.9311	-201.74	-51.6133	-19.5072	-225.178	-42.4141	-58.7601	-210.173	-67.2309	-43.5116	-211.328	-52.0592	-14.3166	-238.861	-46.0438	-50.9255	-227.843	-67.6991	-38.3727	-229.3	-51.1312	-8.71019	-234.493	-4.8424	-19.7051	-239.429	-7.45808	15.4376	-205.528	-0.517293	1.36967	
18	0.15	-176.342	-25.5853	7.08353	-159.485	-36.7706	-17.0732	-169.715	-53.8896	-44.0551	-192.883	-65.0182	-49.059	-187.107	-28.4751	-65.4177	-181.365	-62.4925	-66.7678	-183.886	-58.2649	-31.0301	-206.004	-42.1773	-62.8498	-201.068	-73.5267	-51.7078	-204.37	-54.9087	-14.8896	-224.413	-51.3479	-55.3598	-217.175	-77.5447	-39.1385	-210.717	-59.6715	-11.4634	-240.256	-57.2023	-46.8093	-226.752	-76.7684	-30.5143	-230.201	-59.2315	-6.1399	-238.787	-11.7426	-16.0845	-241.851	-15.1571	15.8407	-207.66	-3.63526	-1.59348	
19	0.158333	-184.814	-25.7262	4.81006	-162.584	-42.6115	-20.9463	-171.574	-64.8059	-41.0968	-196.016	-79.9958	-42.2117	-189.397	-44.3564	-63.8625	-174.964	-69.2501	-50.3726	-182.493	-57.5205	-21.4045	-204.629	-60.7601	-62.399	-188.4	-79.7045	-41.0274	-199.823	-59.2025	-12.1173	-220.252	-69.5146	-50.3442	-198.136	-81.5549	-30.8686	-206.648	-56.957	-6.4882	-229.051	-79.7896	-41.5144	-211.566	-83.64	-22.4528	-218.256	-56.5882	-6.92866	-244.467	-29.677	-22.3338	-248.063	-27.9501	13.9925	-217.962	-8.86216	-7.25929	
20	0.166667	-182.622	-25.5789	5.97431	-156.788	-43.1313	-18.5824	-161.418	-67.8742	-34.8536	-179.946	-88.237	-37.9669	-188.201	-46.9384	-63.1988	-169.736	-73.2278	-53.0991	-174.053	-58.9808	-21.1775	-197.616	-64.938	-58.5183	-182.243	-85.7456	-35.9282	-193.865	-64.1364	-7.61966	-213.679	-79.926	-47.5342	-195.438	-91.232	-27.7066	-201.202	-67.0447	-4.51862	-222.298	-87.0294	-37.0231	-206.271	-89.8861	-12.673	-218.129	-67.7822	0.487002	-245.543	-41.3689	-21.452	-246.925	-32.9485	11.1699	-218.949	-17.0023	-5.05564	
21	0.175	-179.492	-22.6354	11.0769	-154.157	-34.6154	-11.7688	-153.695	-60.0131	-32.4992	-172.149	-79.5806	-33.8732	-177.896	-52.4232	-58.9026	-159.683	-76.7365	-47.1048	-167.189	-63.0285	-15.4498	-191.372	-69.4861	-52.7323	-173.409	-87.6129	-32.1762	-190.483	-61.9271	-3.10094	-204.85	-79.3722	-43.7008	-190.996	-93.6398	-14.9085	-200.871	-67.0379	1.63327	-217.304	-90.6985	-33.7215	-201.997	-94.257	-9.25048	-210.424	-71.9988	7.54959	-240.964	-43.3637	-23.304	-247.64	-35.2024	11.5694	-213.835	-19.5205	-7.74158	
22	0.183333	-180.267	-21.44	5.66048	-146.987	-36.4987	-10.1326	-142.831	-63.7173	-19.7487	-158.844	-88.8264	-20.7257	-171.897	-52.2535	-54.9199	-149.438	-68.2352	-34.9795	-169.209	-58.6435	-9.63841	-178.921	-72.9388	-50.1161	-159.609	-80.0317	-24.2327	-186.206	-59.0684	-1.19992	-187.789	-84.9692	-37.1464	-173.525	-88.3704	-11.9729	-188.068	-63.2025	4.81852	-198.383	-96.5686	-25.0137	-185.488	-90.9118	-4.07016	-202.17	-68.888	7.57369	-235.137	-53.7242	-20.8009	-243.348	-43.8495	9.93563	-216.523	-24.1666	-11.3846	
